<?xml version="1.0" encoding="UTF-8"?>
<mxfile host="app.diagrams.net" modified="2022-11-17T07:19:32.471Z" agent="5.0 (Macintosh; Intel Mac OS X 10_15_7) AppleWebKit/537.36 (KHTML, like Gecko) Chrome/100.0.4896.127 Safari/537.36" etag="AwDND0YSwESs-gR3j9k8" version="20.5.3" type="google" pages="2">
  <diagram id="u9OJoQRXPuRStEWOU2zR" name="check">
    <mxGraphModel dx="2066" dy="1072" grid="1" gridSize="10" guides="1" tooltips="1" connect="1" arrows="1" fold="1" page="1" pageScale="1" pageWidth="1100" pageHeight="850" math="0" shadow="0">
      <root>
        <mxCell id="0" />
        <mxCell id="1" parent="0" />
        <mxCell id="mEk4gClJJe3s_4VxKux_-1" value="" style="shape=callout;whiteSpace=wrap;html=1;perimeter=calloutPerimeter;fontSize=14;size=51;position=0.19;position2=0.21;base=20;rounded=0;direction=south;dashed=1;fillColor=none;" vertex="1" parent="1">
          <mxGeometry x="460" y="158" width="410" height="480" as="geometry" />
        </mxCell>
        <mxCell id="mEk4gClJJe3s_4VxKux_-2" value="" style="edgeStyle=orthogonalEdgeStyle;rounded=0;orthogonalLoop=1;jettySize=auto;html=1;fontSize=14;" edge="1" parent="1" source="mEk4gClJJe3s_4VxKux_-4" target="mEk4gClJJe3s_4VxKux_-23">
          <mxGeometry relative="1" as="geometry" />
        </mxCell>
        <mxCell id="mEk4gClJJe3s_4VxKux_-4" value="Check Need GC" style="strokeWidth=2;html=1;shape=mxgraph.flowchart.terminator;whiteSpace=wrap;fontSize=14;fontStyle=1;fillColor=none;" vertex="1" parent="1">
          <mxGeometry x="279" y="150" width="160" height="50" as="geometry" />
        </mxCell>
        <mxCell id="mEk4gClJJe3s_4VxKux_-5" value="" style="edgeStyle=orthogonalEdgeStyle;rounded=0;orthogonalLoop=1;jettySize=auto;html=1;fontSize=12;strokeWidth=1;" edge="1" parent="1" source="mEk4gClJJe3s_4VxKux_-43" target="mEk4gClJJe3s_4VxKux_-10">
          <mxGeometry relative="1" as="geometry">
            <mxPoint x="618.5" y="199" as="sourcePoint" />
          </mxGeometry>
        </mxCell>
        <mxCell id="mEk4gClJJe3s_4VxKux_-8" value="" style="edgeStyle=orthogonalEdgeStyle;rounded=0;orthogonalLoop=1;jettySize=auto;html=1;fontSize=12;" edge="1" parent="1" source="mEk4gClJJe3s_4VxKux_-10" target="mEk4gClJJe3s_4VxKux_-12">
          <mxGeometry relative="1" as="geometry" />
        </mxCell>
        <mxCell id="mEk4gClJJe3s_4VxKux_-9" value="Yes" style="edgeLabel;html=1;align=center;verticalAlign=middle;resizable=0;points=[];fontSize=12;" vertex="1" connectable="0" parent="mEk4gClJJe3s_4VxKux_-8">
          <mxGeometry x="-0.1241" y="-1" relative="1" as="geometry">
            <mxPoint x="-1" y="-7" as="offset" />
          </mxGeometry>
        </mxCell>
        <mxCell id="mEk4gClJJe3s_4VxKux_-10" value="Has&lt;br&gt;obsolete versions" style="rhombus;whiteSpace=wrap;html=1;fontSize=12;fontStyle=1;fillColor=none;" vertex="1" parent="1">
          <mxGeometry x="567" y="228" width="180" height="60" as="geometry" />
        </mxCell>
        <mxCell id="ae9Np2OI7ANC6uvOjZQk-8" value="" style="edgeStyle=orthogonalEdgeStyle;rounded=0;orthogonalLoop=1;jettySize=auto;html=1;fontSize=12;" edge="1" parent="1" source="mEk4gClJJe3s_4VxKux_-12" target="mEk4gClJJe3s_4VxKux_-14">
          <mxGeometry relative="1" as="geometry" />
        </mxCell>
        <mxCell id="ae9Np2OI7ANC6uvOjZQk-9" value="No" style="edgeLabel;html=1;align=center;verticalAlign=middle;resizable=0;points=[];fontSize=12;" vertex="1" connectable="0" parent="ae9Np2OI7ANC6uvOjZQk-8">
          <mxGeometry x="0.1913" y="1" relative="1" as="geometry">
            <mxPoint x="-1" y="-1" as="offset" />
          </mxGeometry>
        </mxCell>
        <mxCell id="mEk4gClJJe3s_4VxKux_-12" value="Bottommost ?" style="rhombus;whiteSpace=wrap;html=1;fontSize=12;fontStyle=1;fillColor=none;" vertex="1" parent="1">
          <mxGeometry x="567" y="322" width="180" height="60" as="geometry" />
        </mxCell>
        <mxCell id="mEk4gClJJe3s_4VxKux_-13" value="" style="edgeStyle=orthogonalEdgeStyle;rounded=0;orthogonalLoop=1;jettySize=auto;html=1;fontSize=12;entryX=0.5;entryY=0;entryDx=0;entryDy=0;" edge="1" parent="1" source="mEk4gClJJe3s_4VxKux_-14" target="ae9Np2OI7ANC6uvOjZQk-1">
          <mxGeometry relative="1" as="geometry">
            <mxPoint x="618.5" y="469" as="targetPoint" />
          </mxGeometry>
        </mxCell>
        <mxCell id="SD9BQfWV-20rB06QYeOl-1" value="No" style="edgeLabel;html=1;align=center;verticalAlign=middle;resizable=0;points=[];fontSize=12;" vertex="1" connectable="0" parent="mEk4gClJJe3s_4VxKux_-13">
          <mxGeometry x="-0.2161" y="-2" relative="1" as="geometry">
            <mxPoint x="1" y="-3" as="offset" />
          </mxGeometry>
        </mxCell>
        <mxCell id="mEk4gClJJe3s_4VxKux_-14" value="Obsolete ratio &lt;br style=&quot;font-size: 12px;&quot;&gt;&amp;gt;= 10%" style="rhombus;whiteSpace=wrap;html=1;fontSize=12;fontStyle=1;fillColor=none;" vertex="1" parent="1">
          <mxGeometry x="567" y="416" width="180" height="60" as="geometry" />
        </mxCell>
        <mxCell id="mEk4gClJJe3s_4VxKux_-17" value="" style="endArrow=classic;html=1;rounded=0;exitX=0;exitY=0.5;exitDx=0;exitDy=0;edgeStyle=orthogonalEdgeStyle;entryX=0;entryY=0.5;entryDx=0;entryDy=0;fontSize=12;entryPerimeter=0;" edge="1" parent="1" source="mEk4gClJJe3s_4VxKux_-12" target="mEk4gClJJe3s_4VxKux_-44">
          <mxGeometry width="50" height="50" relative="1" as="geometry">
            <mxPoint x="683.5" y="254" as="sourcePoint" />
            <mxPoint x="718.5" y="469" as="targetPoint" />
            <Array as="points">
              <mxPoint x="526" y="352" />
              <mxPoint x="526" y="610" />
            </Array>
          </mxGeometry>
        </mxCell>
        <mxCell id="mEk4gClJJe3s_4VxKux_-18" value="Yes" style="edgeLabel;html=1;align=center;verticalAlign=middle;resizable=0;points=[];fontSize=12;labelBackgroundColor=default;" vertex="1" connectable="0" parent="mEk4gClJJe3s_4VxKux_-17">
          <mxGeometry x="-0.6502" y="-3" relative="1" as="geometry">
            <mxPoint x="23" y="-24" as="offset" />
          </mxGeometry>
        </mxCell>
        <mxCell id="mEk4gClJJe3s_4VxKux_-19" value="" style="endArrow=classic;html=1;rounded=0;exitX=0;exitY=0.5;exitDx=0;exitDy=0;entryX=0;entryY=0.5;entryDx=0;entryDy=0;edgeStyle=orthogonalEdgeStyle;fontSize=12;entryPerimeter=0;" edge="1" parent="1" source="mEk4gClJJe3s_4VxKux_-14" target="mEk4gClJJe3s_4VxKux_-44">
          <mxGeometry width="50" height="50" relative="1" as="geometry">
            <mxPoint x="693.5" y="264" as="sourcePoint" />
            <mxPoint x="718.5" y="469" as="targetPoint" />
            <Array as="points">
              <mxPoint x="526" y="446" />
              <mxPoint x="526" y="610" />
            </Array>
          </mxGeometry>
        </mxCell>
        <mxCell id="ae9Np2OI7ANC6uvOjZQk-6" value="Yes" style="edgeLabel;html=1;align=center;verticalAlign=middle;resizable=0;points=[];fontSize=12;" vertex="1" connectable="0" parent="mEk4gClJJe3s_4VxKux_-19">
          <mxGeometry x="-0.8821" y="3" relative="1" as="geometry">
            <mxPoint x="-5" y="-3" as="offset" />
          </mxGeometry>
        </mxCell>
        <mxCell id="mEk4gClJJe3s_4VxKux_-21" value="" style="edgeStyle=orthogonalEdgeStyle;rounded=0;orthogonalLoop=1;jettySize=auto;html=1;fontSize=14;entryX=0.5;entryY=0;entryDx=0;entryDy=0;" edge="1" parent="1" source="mEk4gClJJe3s_4VxKux_-23" target="mEk4gClJJe3s_4VxKux_-36">
          <mxGeometry relative="1" as="geometry" />
        </mxCell>
        <mxCell id="mEk4gClJJe3s_4VxKux_-23" value="Check SSTs" style="rounded=0;whiteSpace=wrap;html=1;fontSize=12;strokeWidth=2;fontStyle=1" vertex="1" parent="1">
          <mxGeometry x="279" y="230" width="160" height="50" as="geometry" />
        </mxCell>
        <mxCell id="mEk4gClJJe3s_4VxKux_-24" value="" style="edgeStyle=orthogonalEdgeStyle;rounded=0;orthogonalLoop=1;jettySize=auto;html=1;fontSize=14;" edge="1" parent="1" source="mEk4gClJJe3s_4VxKux_-28" target="mEk4gClJJe3s_4VxKux_-33">
          <mxGeometry relative="1" as="geometry" />
        </mxCell>
        <mxCell id="mEk4gClJJe3s_4VxKux_-25" value="No" style="edgeLabel;html=1;align=center;verticalAlign=middle;resizable=0;points=[];fontSize=14;" vertex="1" connectable="0" parent="mEk4gClJJe3s_4VxKux_-24">
          <mxGeometry x="-0.2307" y="-1" relative="1" as="geometry">
            <mxPoint y="3" as="offset" />
          </mxGeometry>
        </mxCell>
        <mxCell id="mEk4gClJJe3s_4VxKux_-26" value="" style="edgeStyle=orthogonalEdgeStyle;rounded=0;orthogonalLoop=1;jettySize=auto;html=1;fontSize=14;exitX=0;exitY=0.5;exitDx=0;exitDy=0;" edge="1" parent="1" source="mEk4gClJJe3s_4VxKux_-28" target="mEk4gClJJe3s_4VxKux_-29">
          <mxGeometry relative="1" as="geometry">
            <Array as="points">
              <mxPoint x="170" y="448" />
            </Array>
          </mxGeometry>
        </mxCell>
        <mxCell id="mEk4gClJJe3s_4VxKux_-27" value="Yes" style="edgeLabel;html=1;align=center;verticalAlign=middle;resizable=0;points=[];fontSize=14;labelBackgroundColor=default;" vertex="1" connectable="0" parent="mEk4gClJJe3s_4VxKux_-26">
          <mxGeometry x="-0.6119" y="-1" relative="1" as="geometry">
            <mxPoint x="29" y="1" as="offset" />
          </mxGeometry>
        </mxCell>
        <mxCell id="mEk4gClJJe3s_4VxKux_-28" value="SSTs need GC&lt;br style=&quot;font-size: 14px;&quot;&gt;&amp;gt; 50%" style="rhombus;whiteSpace=wrap;html=1;fontSize=14;flipV=1;fontStyle=1;fillColor=none;" vertex="1" parent="1">
          <mxGeometry x="239" y="418" width="240" height="60" as="geometry" />
        </mxCell>
        <mxCell id="mEk4gClJJe3s_4VxKux_-29" value="Need GC" style="strokeWidth=2;html=1;shape=mxgraph.flowchart.terminator;whiteSpace=wrap;fontSize=14;fontStyle=1;fillColor=none;" vertex="1" parent="1">
          <mxGeometry x="90" y="730" width="160" height="50" as="geometry" />
        </mxCell>
        <mxCell id="mEk4gClJJe3s_4VxKux_-30" value="No Need" style="strokeWidth=2;html=1;shape=mxgraph.flowchart.terminator;whiteSpace=wrap;fontSize=14;fontStyle=1;fillColor=none;" vertex="1" parent="1">
          <mxGeometry x="279" y="730" width="160" height="50" as="geometry" />
        </mxCell>
        <mxCell id="mEk4gClJJe3s_4VxKux_-31" value="" style="edgeStyle=orthogonalEdgeStyle;rounded=0;orthogonalLoop=1;jettySize=auto;html=1;fontSize=14;exitX=0.5;exitY=1;exitDx=0;exitDy=0;" edge="1" parent="1" source="ae9Np2OI7ANC6uvOjZQk-10" target="mEk4gClJJe3s_4VxKux_-30">
          <mxGeometry relative="1" as="geometry">
            <mxPoint x="359" y="710" as="sourcePoint" />
          </mxGeometry>
        </mxCell>
        <mxCell id="mEk4gClJJe3s_4VxKux_-32" value="No" style="edgeLabel;html=1;align=center;verticalAlign=middle;resizable=0;points=[];fontSize=14;" vertex="1" connectable="0" parent="mEk4gClJJe3s_4VxKux_-31">
          <mxGeometry x="-0.2443" y="1" relative="1" as="geometry">
            <mxPoint x="-1" y="2" as="offset" />
          </mxGeometry>
        </mxCell>
        <mxCell id="ae9Np2OI7ANC6uvOjZQk-11" value="" style="edgeStyle=orthogonalEdgeStyle;rounded=0;orthogonalLoop=1;jettySize=auto;html=1;fontSize=12;" edge="1" parent="1" source="mEk4gClJJe3s_4VxKux_-33" target="ae9Np2OI7ANC6uvOjZQk-10">
          <mxGeometry relative="1" as="geometry" />
        </mxCell>
        <mxCell id="ae9Np2OI7ANC6uvOjZQk-12" value="No" style="edgeLabel;html=1;align=center;verticalAlign=middle;resizable=0;points=[];fontSize=14;" vertex="1" connectable="0" parent="ae9Np2OI7ANC6uvOjZQk-11">
          <mxGeometry x="0.05" relative="1" as="geometry">
            <mxPoint y="-3" as="offset" />
          </mxGeometry>
        </mxCell>
        <mxCell id="mEk4gClJJe3s_4VxKux_-33" value="Total obsolete ratio&lt;br style=&quot;font-size: 14px;&quot;&gt;&amp;gt;= 10%" style="rhombus;whiteSpace=wrap;html=1;fontSize=14;flipV=1;fontStyle=1;fillColor=none;" vertex="1" parent="1">
          <mxGeometry x="239" y="524" width="240" height="60" as="geometry" />
        </mxCell>
        <mxCell id="mEk4gClJJe3s_4VxKux_-34" value="" style="edgeStyle=orthogonalEdgeStyle;rounded=0;orthogonalLoop=1;jettySize=auto;html=1;fontSize=14;" edge="1" parent="1" source="mEk4gClJJe3s_4VxKux_-36" target="mEk4gClJJe3s_4VxKux_-28">
          <mxGeometry relative="1" as="geometry" />
        </mxCell>
        <mxCell id="mEk4gClJJe3s_4VxKux_-35" value="No" style="edgeLabel;html=1;align=center;verticalAlign=middle;resizable=0;points=[];fontSize=14;" vertex="1" connectable="0" parent="mEk4gClJJe3s_4VxKux_-34">
          <mxGeometry x="-0.2407" y="1" relative="1" as="geometry">
            <mxPoint x="-1" y="3" as="offset" />
          </mxGeometry>
        </mxCell>
        <mxCell id="mEk4gClJJe3s_4VxKux_-36" value="Any SST&lt;br style=&quot;font-size: 14px;&quot;&gt;bottommost" style="rhombus;whiteSpace=wrap;html=1;fontSize=14;flipV=1;fontStyle=1;fillColor=none;" vertex="1" parent="1">
          <mxGeometry x="239" y="312" width="240" height="60" as="geometry" />
        </mxCell>
        <mxCell id="mEk4gClJJe3s_4VxKux_-39" value="" style="edgeStyle=orthogonalEdgeStyle;rounded=0;orthogonalLoop=1;jettySize=auto;html=1;fontSize=14;exitX=0;exitY=0.5;exitDx=0;exitDy=0;entryX=0.5;entryY=0;entryDx=0;entryDy=0;" edge="1" parent="1" source="mEk4gClJJe3s_4VxKux_-36" target="mEk4gClJJe3s_4VxKux_-29">
          <mxGeometry relative="1" as="geometry">
            <mxPoint x="289" y="237.5" as="sourcePoint" />
            <mxPoint x="180" y="660" as="targetPoint" />
          </mxGeometry>
        </mxCell>
        <mxCell id="mEk4gClJJe3s_4VxKux_-40" value="Yes" style="edgeLabel;html=1;align=center;verticalAlign=middle;resizable=0;points=[];fontSize=14;labelBackgroundColor=default;" vertex="1" connectable="0" parent="mEk4gClJJe3s_4VxKux_-39">
          <mxGeometry x="-0.6119" y="-1" relative="1" as="geometry">
            <mxPoint x="31" y="-20" as="offset" />
          </mxGeometry>
        </mxCell>
        <mxCell id="mEk4gClJJe3s_4VxKux_-41" value="" style="edgeStyle=orthogonalEdgeStyle;rounded=0;orthogonalLoop=1;jettySize=auto;html=1;fontSize=14;exitX=0;exitY=0.5;exitDx=0;exitDy=0;entryX=0.5;entryY=0;entryDx=0;entryDy=0;" edge="1" parent="1" source="mEk4gClJJe3s_4VxKux_-33" target="mEk4gClJJe3s_4VxKux_-29">
          <mxGeometry relative="1" as="geometry">
            <mxPoint x="299" y="247.5" as="sourcePoint" />
            <mxPoint x="190" y="670" as="targetPoint" />
          </mxGeometry>
        </mxCell>
        <mxCell id="mEk4gClJJe3s_4VxKux_-42" value="Yes" style="edgeLabel;html=1;align=center;verticalAlign=middle;resizable=0;points=[];fontSize=14;labelBackgroundColor=default;" vertex="1" connectable="0" parent="mEk4gClJJe3s_4VxKux_-41">
          <mxGeometry x="-0.6119" y="-1" relative="1" as="geometry">
            <mxPoint x="9" y="1" as="offset" />
          </mxGeometry>
        </mxCell>
        <mxCell id="mEk4gClJJe3s_4VxKux_-43" value="Check SST" style="strokeWidth=2;html=1;shape=mxgraph.flowchart.terminator;whiteSpace=wrap;fontSize=12;fontStyle=1;fillColor=none;" vertex="1" parent="1">
          <mxGeometry x="597" y="167" width="120" height="40" as="geometry" />
        </mxCell>
        <mxCell id="mEk4gClJJe3s_4VxKux_-44" value="Need GC" style="strokeWidth=2;html=1;shape=mxgraph.flowchart.terminator;whiteSpace=wrap;fontSize=12;fontStyle=1;fillColor=none;" vertex="1" parent="1">
          <mxGeometry x="597" y="590" width="120" height="40" as="geometry" />
        </mxCell>
        <mxCell id="mEk4gClJJe3s_4VxKux_-45" value="No Need" style="strokeWidth=2;html=1;shape=mxgraph.flowchart.terminator;whiteSpace=wrap;fontSize=12;fontStyle=1;fillColor=none;" vertex="1" parent="1">
          <mxGeometry x="734" y="590" width="120" height="40" as="geometry" />
        </mxCell>
        <mxCell id="rWVErtLRmmuIr3XewGzB-4" value="" style="endArrow=classic;html=1;rounded=0;exitX=1;exitY=0.5;exitDx=0;exitDy=0;entryX=0.5;entryY=0;entryDx=0;entryDy=0;edgeStyle=orthogonalEdgeStyle;fontSize=12;entryPerimeter=0;" edge="1" parent="1" source="mEk4gClJJe3s_4VxKux_-10" target="mEk4gClJJe3s_4VxKux_-45">
          <mxGeometry width="50" height="50" relative="1" as="geometry">
            <mxPoint x="757" y="455" as="sourcePoint" />
            <mxPoint x="804" y="528" as="targetPoint" />
          </mxGeometry>
        </mxCell>
        <mxCell id="rWVErtLRmmuIr3XewGzB-5" value="No" style="edgeLabel;html=1;align=center;verticalAlign=middle;resizable=0;points=[];fontSize=12;labelBackgroundColor=default;" vertex="1" connectable="0" parent="rWVErtLRmmuIr3XewGzB-4">
          <mxGeometry x="-0.5908" relative="1" as="geometry">
            <mxPoint x="-18" y="-31" as="offset" />
          </mxGeometry>
        </mxCell>
        <mxCell id="ae9Np2OI7ANC6uvOjZQk-2" value="" style="edgeStyle=orthogonalEdgeStyle;rounded=0;orthogonalLoop=1;jettySize=auto;html=1;fontSize=12;exitX=0;exitY=0.5;exitDx=0;exitDy=0;entryX=0;entryY=0.5;entryDx=0;entryDy=0;entryPerimeter=0;" edge="1" parent="1" source="ae9Np2OI7ANC6uvOjZQk-1" target="mEk4gClJJe3s_4VxKux_-44">
          <mxGeometry relative="1" as="geometry">
            <Array as="points">
              <mxPoint x="526" y="540" />
              <mxPoint x="526" y="610" />
            </Array>
          </mxGeometry>
        </mxCell>
        <mxCell id="ae9Np2OI7ANC6uvOjZQk-3" value="Yes" style="edgeLabel;html=1;align=center;verticalAlign=middle;resizable=0;points=[];fontSize=12;" vertex="1" connectable="0" parent="ae9Np2OI7ANC6uvOjZQk-2">
          <mxGeometry x="-0.1708" y="1" relative="1" as="geometry">
            <mxPoint x="19" y="-34" as="offset" />
          </mxGeometry>
        </mxCell>
        <mxCell id="ae9Np2OI7ANC6uvOjZQk-1" value="More than 1024&lt;br&gt;versions of any key" style="rhombus;whiteSpace=wrap;html=1;fontSize=12;fontStyle=1;fillColor=none;" vertex="1" parent="1">
          <mxGeometry x="567" y="510" width="180" height="60" as="geometry" />
        </mxCell>
        <mxCell id="ae9Np2OI7ANC6uvOjZQk-4" value="" style="endArrow=classic;html=1;rounded=0;exitX=1;exitY=0.5;exitDx=0;exitDy=0;entryX=0.5;entryY=0;entryDx=0;entryDy=0;edgeStyle=orthogonalEdgeStyle;fontSize=12;entryPerimeter=0;" edge="1" parent="1" source="ae9Np2OI7ANC6uvOjZQk-1" target="mEk4gClJJe3s_4VxKux_-45">
          <mxGeometry width="50" height="50" relative="1" as="geometry">
            <mxPoint x="757" y="456" as="sourcePoint" />
            <mxPoint x="804" y="620" as="targetPoint" />
          </mxGeometry>
        </mxCell>
        <mxCell id="ae9Np2OI7ANC6uvOjZQk-5" value="No" style="edgeLabel;html=1;align=center;verticalAlign=middle;resizable=0;points=[];fontSize=12;labelBackgroundColor=default;" vertex="1" connectable="0" parent="ae9Np2OI7ANC6uvOjZQk-4">
          <mxGeometry x="-0.5908" relative="1" as="geometry">
            <mxPoint x="9" as="offset" />
          </mxGeometry>
        </mxCell>
        <mxCell id="ae9Np2OI7ANC6uvOjZQk-10" value="More than 1024&lt;br&gt;versions of any key" style="rhombus;whiteSpace=wrap;html=1;fontSize=14;flipV=1;fontStyle=1;fillColor=none;" vertex="1" parent="1">
          <mxGeometry x="239" y="630" width="240" height="60" as="geometry" />
        </mxCell>
        <mxCell id="ae9Np2OI7ANC6uvOjZQk-13" value="" style="edgeStyle=orthogonalEdgeStyle;rounded=0;orthogonalLoop=1;jettySize=auto;html=1;fontSize=14;exitX=0;exitY=0.5;exitDx=0;exitDy=0;entryX=0.5;entryY=0;entryDx=0;entryDy=0;entryPerimeter=0;" edge="1" parent="1" source="ae9Np2OI7ANC6uvOjZQk-10" target="mEk4gClJJe3s_4VxKux_-29">
          <mxGeometry relative="1" as="geometry">
            <mxPoint x="249" y="564" as="sourcePoint" />
            <mxPoint x="180" y="740" as="targetPoint" />
          </mxGeometry>
        </mxCell>
        <mxCell id="ae9Np2OI7ANC6uvOjZQk-14" value="Yes" style="edgeLabel;html=1;align=center;verticalAlign=middle;resizable=0;points=[];fontSize=14;labelBackgroundColor=default;" vertex="1" connectable="0" parent="ae9Np2OI7ANC6uvOjZQk-13">
          <mxGeometry x="-0.6119" y="-1" relative="1" as="geometry">
            <mxPoint x="-12" y="1" as="offset" />
          </mxGeometry>
        </mxCell>
      </root>
    </mxGraphModel>
  </diagram>
  <diagram id="71zbKLy9B85_d2CuiTRZ" name="compaction-filter">
    <mxGraphModel dx="2066" dy="1072" grid="1" gridSize="10" guides="1" tooltips="1" connect="1" arrows="1" fold="1" page="1" pageScale="1" pageWidth="1100" pageHeight="850" math="0" shadow="0">
      <root>
        <mxCell id="0" />
        <mxCell id="1" parent="0" />
        <mxCell id="-1UvkGTPB9QEilRbR0c5-1" value="" style="edgeStyle=orthogonalEdgeStyle;rounded=0;orthogonalLoop=1;jettySize=auto;html=1;fontSize=14;" edge="1" parent="1" source="-1UvkGTPB9QEilRbR0c5-3" target="-1UvkGTPB9QEilRbR0c5-6">
          <mxGeometry relative="1" as="geometry" />
        </mxCell>
        <mxCell id="-1UvkGTPB9QEilRbR0c5-3" value="Compaction Filter" style="strokeWidth=2;html=1;shape=mxgraph.flowchart.terminator;whiteSpace=wrap;fontSize=14;fontStyle=1;fillColor=none;flipH=1;" vertex="1" parent="1">
          <mxGeometry x="279" y="140" width="160" height="50" as="geometry" />
        </mxCell>
        <mxCell id="-1UvkGTPB9QEilRbR0c5-4" value="" style="edgeStyle=orthogonalEdgeStyle;rounded=0;orthogonalLoop=1;jettySize=auto;html=1;fontSize=14;entryX=0.5;entryY=0;entryDx=0;entryDy=0;exitX=0.5;exitY=1;exitDx=0;exitDy=0;" edge="1" parent="1" source="-1UvkGTPB9QEilRbR0c5-6" target="-1UvkGTPB9QEilRbR0c5-19">
          <mxGeometry relative="1" as="geometry">
            <mxPoint x="360" y="270" as="sourcePoint" />
          </mxGeometry>
        </mxCell>
        <mxCell id="-1UvkGTPB9QEilRbR0c5-5" value="Yes" style="edgeLabel;html=1;align=center;verticalAlign=middle;resizable=0;points=[];fontSize=14;" vertex="1" connectable="0" parent="-1UvkGTPB9QEilRbR0c5-4">
          <mxGeometry x="-0.1076" y="1" relative="1" as="geometry">
            <mxPoint as="offset" />
          </mxGeometry>
        </mxCell>
        <mxCell id="-1UvkGTPB9QEilRbR0c5-6" value="Ts &amp;lt; Safe Point" style="rhombus;whiteSpace=wrap;html=1;fontSize=14;flipV=0;fontStyle=1;fillColor=none;flipH=1;" vertex="1" parent="1">
          <mxGeometry x="259" y="220" width="200" height="55" as="geometry" />
        </mxCell>
        <mxCell id="-1UvkGTPB9QEilRbR0c5-9" value="" style="edgeStyle=orthogonalEdgeStyle;rounded=0;orthogonalLoop=1;jettySize=auto;html=1;fontSize=14;exitX=0;exitY=0.5;exitDx=0;exitDy=0;" edge="1" parent="1" source="xE6OeAyKQgCoA_M102Sh-2" target="-1UvkGTPB9QEilRbR0c5-12">
          <mxGeometry relative="1" as="geometry">
            <mxPoint x="279" y="471.5" as="sourcePoint" />
          </mxGeometry>
        </mxCell>
        <mxCell id="-1UvkGTPB9QEilRbR0c5-10" value="No" style="edgeLabel;html=1;align=center;verticalAlign=middle;resizable=0;points=[];fontSize=14;labelBackgroundColor=default;" vertex="1" connectable="0" parent="-1UvkGTPB9QEilRbR0c5-9">
          <mxGeometry x="-0.6119" y="-1" relative="1" as="geometry">
            <mxPoint as="offset" />
          </mxGeometry>
        </mxCell>
        <mxCell id="-1UvkGTPB9QEilRbR0c5-12" value="Mark KEEP" style="strokeWidth=2;html=1;shape=mxgraph.flowchart.terminator;whiteSpace=wrap;fontSize=14;fontStyle=1;fillColor=none;flipH=1;" vertex="1" parent="1">
          <mxGeometry x="90" y="560" width="160" height="50" as="geometry" />
        </mxCell>
        <mxCell id="-1UvkGTPB9QEilRbR0c5-13" value="Scan &amp;amp; Delete" style="strokeWidth=2;html=1;shape=mxgraph.flowchart.terminator;whiteSpace=wrap;fontSize=14;fontStyle=1;fillColor=none;flipH=1;" vertex="1" parent="1">
          <mxGeometry x="279" y="560" width="160" height="50" as="geometry" />
        </mxCell>
        <mxCell id="-1UvkGTPB9QEilRbR0c5-17" value="" style="edgeStyle=orthogonalEdgeStyle;rounded=0;orthogonalLoop=1;jettySize=auto;html=1;fontSize=14;entryX=0.5;entryY=0;entryDx=0;entryDy=0;exitX=0.5;exitY=1;exitDx=0;exitDy=0;" edge="1" parent="1" source="-1UvkGTPB9QEilRbR0c5-19" target="xE6OeAyKQgCoA_M102Sh-2">
          <mxGeometry relative="1" as="geometry">
            <mxPoint x="360" y="390" as="sourcePoint" />
            <mxPoint x="359" y="444" as="targetPoint" />
          </mxGeometry>
        </mxCell>
        <mxCell id="-1UvkGTPB9QEilRbR0c5-18" value="Yes" style="edgeLabel;html=1;align=center;verticalAlign=middle;resizable=0;points=[];fontSize=14;" vertex="1" connectable="0" parent="-1UvkGTPB9QEilRbR0c5-17">
          <mxGeometry x="-0.2407" y="1" relative="1" as="geometry">
            <mxPoint x="-1" y="3" as="offset" />
          </mxGeometry>
        </mxCell>
        <mxCell id="-1UvkGTPB9QEilRbR0c5-19" value="Newest ?" style="rhombus;whiteSpace=wrap;html=1;fontSize=14;flipV=0;fontStyle=1;fillColor=none;flipH=1;" vertex="1" parent="1">
          <mxGeometry x="259" y="333" width="200" height="55" as="geometry" />
        </mxCell>
        <mxCell id="-1UvkGTPB9QEilRbR0c5-20" value="" style="edgeStyle=orthogonalEdgeStyle;rounded=0;orthogonalLoop=1;jettySize=auto;html=1;fontSize=14;exitX=0;exitY=0.5;exitDx=0;exitDy=0;entryX=0.5;entryY=0;entryDx=0;entryDy=0;" edge="1" parent="1" source="-1UvkGTPB9QEilRbR0c5-6" target="-1UvkGTPB9QEilRbR0c5-12">
          <mxGeometry relative="1" as="geometry">
            <mxPoint x="289" y="481.5" as="sourcePoint" />
            <mxPoint x="180" y="680" as="targetPoint" />
          </mxGeometry>
        </mxCell>
        <mxCell id="-1UvkGTPB9QEilRbR0c5-21" value="No" style="edgeLabel;html=1;align=center;verticalAlign=middle;resizable=0;points=[];fontSize=14;labelBackgroundColor=default;" vertex="1" connectable="0" parent="-1UvkGTPB9QEilRbR0c5-20">
          <mxGeometry x="-0.6119" y="-1" relative="1" as="geometry">
            <mxPoint x="44" y="1" as="offset" />
          </mxGeometry>
        </mxCell>
        <mxCell id="xE6OeAyKQgCoA_M102Sh-1" value="Mark REMOVE" style="strokeWidth=2;html=1;shape=mxgraph.flowchart.terminator;whiteSpace=wrap;fontSize=14;fontStyle=1;fillColor=none;flipH=1;" vertex="1" parent="1">
          <mxGeometry x="470" y="560" width="160" height="50" as="geometry" />
        </mxCell>
        <mxCell id="xE6OeAyKQgCoA_M102Sh-2" value="Deleted or Expired" style="rhombus;whiteSpace=wrap;html=1;fontSize=14;flipV=0;fontStyle=1;fillColor=none;flipH=1;" vertex="1" parent="1">
          <mxGeometry x="259" y="445" width="200" height="55" as="geometry" />
        </mxCell>
        <mxCell id="xE6OeAyKQgCoA_M102Sh-3" value="" style="edgeStyle=orthogonalEdgeStyle;rounded=0;orthogonalLoop=1;jettySize=auto;html=1;fontSize=14;exitX=1;exitY=0.5;exitDx=0;exitDy=0;" edge="1" parent="1" source="-1UvkGTPB9QEilRbR0c5-19" target="xE6OeAyKQgCoA_M102Sh-1">
          <mxGeometry relative="1" as="geometry">
            <mxPoint x="289" y="369.5" as="sourcePoint" />
            <mxPoint x="180" y="570" as="targetPoint" />
          </mxGeometry>
        </mxCell>
        <mxCell id="xE6OeAyKQgCoA_M102Sh-4" value="No" style="edgeLabel;html=1;align=center;verticalAlign=middle;resizable=0;points=[];fontSize=14;labelBackgroundColor=default;" vertex="1" connectable="0" parent="xE6OeAyKQgCoA_M102Sh-3">
          <mxGeometry x="-0.6119" y="-1" relative="1" as="geometry">
            <mxPoint x="-15" y="-1" as="offset" />
          </mxGeometry>
        </mxCell>
        <mxCell id="xE6OeAyKQgCoA_M102Sh-7" value="" style="edgeStyle=orthogonalEdgeStyle;rounded=0;orthogonalLoop=1;jettySize=auto;html=1;fontSize=14;exitX=0.5;exitY=1;exitDx=0;exitDy=0;entryX=0.5;entryY=0;entryDx=0;entryDy=0;entryPerimeter=0;" edge="1" parent="1" source="xE6OeAyKQgCoA_M102Sh-2" target="-1UvkGTPB9QEilRbR0c5-13">
          <mxGeometry relative="1" as="geometry">
            <mxPoint x="369" y="397" as="sourcePoint" />
            <mxPoint x="369" y="454" as="targetPoint" />
          </mxGeometry>
        </mxCell>
        <mxCell id="xE6OeAyKQgCoA_M102Sh-8" value="Yes" style="edgeLabel;html=1;align=center;verticalAlign=middle;resizable=0;points=[];fontSize=14;" vertex="1" connectable="0" parent="xE6OeAyKQgCoA_M102Sh-7">
          <mxGeometry x="-0.2407" y="1" relative="1" as="geometry">
            <mxPoint x="-1" y="3" as="offset" />
          </mxGeometry>
        </mxCell>
      </root>
    </mxGraphModel>
  </diagram>
</mxfile>
